<?xml version="1.0" encoding="utf-8"?>
<!-- Generator: Adobe Illustrator 16.0.0, SVG Export Plug-In . SVG Version: 6.00 Build 0)  -->
<!DOCTYPE svg PUBLIC "-//W3C//DTD SVG 1.1//EN" "http://www.w3.org/Graphics/SVG/1.1/DTD/svg11.dtd">
<svg version="1.1" id="_x23_Layer_1" xmlns="http://www.w3.org/2000/svg" xmlns:xlink="http://www.w3.org/1999/xlink" x="0px"
	 y="0px" width="2900px" height="1700px" viewBox="0 0 2900 1700" enable-background="new 0 0 2900 1700" xml:space="preserve">
<rect fill-rule="evenodd" clip-rule="evenodd" fill="#414042" width="2900" height="1700"/>
<path fill-rule="evenodd" clip-rule="evenodd" fill="#8298CD" d="M701.213,418.691h86.831c22.951,0,41.729,18.779,41.729,41.729
	v0.001c0,22.951-18.778,41.729-41.729,41.729h-85.055c-66.752,0-121.37,54.618-121.37,121.37l0,0
	c0,66.753,54.616,121.371,121.37,121.371h209.014c24.863,0,45.206,20.343,45.206,45.205l0,0c0,24.863-20.343,45.206-45.206,45.206
	H616.28c-66.753,0-121.37,54.617-121.37,121.37l0,0c0,66.753,54.617,121.371,121.37,121.371h1634.375
	c66.755,0,121.371-54.617,121.371-121.371l0,0c0-69.76-56.153-121.37-124.908-121.37c0.344-0.001-99.686-0.007-99.343-0.015
	c-24.353-0.598-44.09-20.701-44.09-45.191l0,0c0-24.49,19.737-44.593,44.09-45.19c-0.343-0.009-0.686-0.015-1.029-0.015h90.246
	c66.754,0,121.371-54.617,121.371-121.371l0,0c0-66.754-54.617-121.37-121.371-121.37h-16.675c0.312-0.002,0.624-0.006,0.934-0.013
	c-22.479-0.553-40.699-19.11-40.699-41.717v-0.001c0-22.606,18.22-41.163,40.699-41.716c-0.343-0.009-0.687-0.014-1.03-0.014h-0.125
	c49.563,0,90.113-40.55,90.113-90.112v0c0-49.562-40.552-90.113-90.113-90.113H701.213c-49.561,0-90.112,40.552-90.112,90.113v0
	C611.101,378.14,651.651,418.691,701.213,418.691z"/>
<path fill-rule="evenodd" clip-rule="evenodd" fill="#7E8EB3" d="M1720.27,414.139L1720.27,414.139
	c7.256,0,13.193,5.938,13.193,13.193v362.013c0,7.256-5.938,13.193-13.193,13.193l0,0c-7.257,0-13.194-5.938-13.194-13.193V427.332
	C1707.075,420.076,1713.013,414.139,1720.27,414.139z"/>
<path fill-rule="evenodd" clip-rule="evenodd" fill="#7E8EB3" d="M1078.03,686.492h175.286c6.22,0,11.309-5.089,11.309-11.309
	V554.557c0-6.22-5.089-11.309-11.309-11.309H1078.03c-6.22,0-11.309,5.089-11.309,11.309v120.627
	C1066.722,681.403,1071.811,686.492,1078.03,686.492z"/>
<path fill-rule="evenodd" clip-rule="evenodd" fill="#7E8EB3" d="M1347.51,960.729h511.447v-180.94c0-17.16-14.04-31.2-31.2-31.2
	H1378.71c-17.161,0-31.2,14.04-31.2,31.2V960.729z"/>
<path fill-rule="evenodd" clip-rule="evenodd" fill="#F4AB5F" d="M530.857,1441.411h1887.627c34.684,0,63.062-28.378,63.062-63.062
	v-48.062h-22.356c-11.005-9.343-25.225-14.999-40.705-14.999h-362.598c-17.341,0-31.53-14.188-31.53-31.53l0,0
	c0-17.342,14.189-31.53,31.53-31.53h106.149c34.684,0,63.062-28.378,63.062-63.062v-48.062h-22.356
	c-11.005-9.344-25.226-14.999-40.705-14.999H755.775c-15.479,0-29.7,5.655-40.706,14.999h-22.355v48.062l0,0
	c0,34.684,28.378,63.062,63.062,63.062h125.067c17.341,0,31.53,14.188,31.53,31.53l0,0c0,17.342-14.189,31.53-31.53,31.53H530.857
	c-15.479,0-29.7,5.656-40.705,14.999h-22.355v48.062l0,0C467.797,1413.033,496.174,1441.411,530.857,1441.411L530.857,1441.411z
	 M2225.098,1189.167L2225.098,1189.167L2225.098,1189.167z M2481.546,1378.35"/>
<path fill-rule="evenodd" clip-rule="evenodd" fill="#FFE17D" d="M530.857,1393.349h1887.627c34.684,0,63.062-28.377,63.062-63.061
	l0,0c0-34.684-28.378-63.062-63.062-63.062h-362.598c-17.341,0-31.53-14.188-31.53-31.53l0,0c0-17.342,14.189-31.53,31.53-31.53
	h106.149c34.684,0,63.062-28.377,63.062-63.061l0,0c0-34.684-28.379-63.061-63.062-63.061H755.775
	c-34.684,0-63.062,28.377-63.062,63.061l0,0c0,34.684,28.378,63.061,63.062,63.061h125.067c17.341,0,31.53,14.188,31.53,31.53l0,0
	c0,17.342-14.189,31.53-31.53,31.53H530.857c-34.684,0-63.061,28.378-63.061,63.062l0,0
	C467.797,1364.972,496.174,1393.349,530.857,1393.349z"/>
<path fill-rule="evenodd" clip-rule="evenodd" fill="#FDC16E" d="M2478.036,1350.972c1.065-3.044,1.905-6.191,2.494-9.424H468.812
	c0.589,3.232,1.429,6.38,2.494,9.424H2478.036L2478.036,1350.972z M2474.811,1302.024c-1.678-3.317-3.636-6.471-5.85-9.424H480.381
	c-2.214,2.953-4.172,6.106-5.85,9.424H2474.811L2474.811,1302.024z M2029.618,1253.078c-1.897-2.854-3.346-6.028-4.236-9.424
	H911.349c-0.892,3.396-2.339,6.57-4.237,9.424H2029.618L2029.618,1253.078z M2164.039,1204.131
	c11.367-0.359,22.001-3.766,31.106-9.424H722.666c9.105,5.658,19.738,9.064,31.105,9.424H2164.039L2164.039,1204.131z
	 M2223.501,1155.185c0.706-3.064,1.186-6.212,1.423-9.424H692.887c0.237,3.212,0.718,6.359,1.424,9.424H2223.501L2223.501,1155.185z
	 M2214.498,1106.227c-2.26-3.38-4.836-6.532-7.686-9.413H710.999c-2.587,2.615-4.947,5.453-7.051,8.483
	c0.787,0.591,1.766,0.94,2.825,0.94h1507.398C2214.281,1106.237,2214.391,1106.233,2214.498,1106.227z"/>
<path fill-rule="evenodd" clip-rule="evenodd" fill="#FDC16E" d="M715.138,1267.227h287.979c34.684,0,63.061,28.378,63.061,63.062
	l0,0c0,34.684-28.377,63.061-63.061,63.061H715.138c-34.684,0-63.061-28.377-63.061-63.061l0,0
	C652.077,1295.604,680.454,1267.227,715.138,1267.227z"/>
<path fill-rule="evenodd" clip-rule="evenodd" fill="#FDC16E" d="M1263.769,1114.776h287.979c34.684,0,63.062,28.378,63.062,63.062
	l0,0c0,34.684-28.378,63.061-63.062,63.061h-287.979c-34.683,0-63.061-28.377-63.061-63.061l0,0
	C1200.708,1143.154,1229.085,1114.776,1263.769,1114.776z"/>
<path fill-rule="evenodd" clip-rule="evenodd" fill="#FDC16E" d="M1787.176,1267.227h287.979c34.684,0,63.062,28.378,63.062,63.062
	l0,0c0,34.684-28.378,63.061-63.062,63.061h-287.979c-34.684,0-63.061-28.377-63.061-63.061l0,0
	C1724.115,1295.604,1752.492,1267.227,1787.176,1267.227z"/>
<path fill-rule="evenodd" clip-rule="evenodd" fill="#7E8EB3" d="M912.003,835.304h1334.859h0.256
	c68.755,0,124.908,51.61,124.908,121.37l0,0c0,66.754-54.616,121.371-121.371,121.371H616.28
	c-66.753,0-121.37-54.618-121.37-121.371l0,0c0-66.753,54.617-121.37,121.37-121.37H912.003z"/>
<path fill-rule="evenodd" clip-rule="evenodd" fill="#7579AD" d="M2358.485,1012.206c-20.241,39.019-61.054,65.839-107.83,65.839
	H616.28c-46.775,0-87.587-26.82-107.828-65.839H2358.485z"/>
<path fill-rule="evenodd" clip-rule="evenodd" fill="#E6E7E8" d="M994.624,525.068c-10.419-7.776-12.562-22.527-4.786-32.946
	c7.777-10.42,22.528-12.563,32.947-4.786c36.488,27.205,65.84,63.979,83.059,102.893c13.912,31.442,20.006,64.588,15.786,95.778
	c-4.396,32.49-19.73,62.38-48.656,85.697c-23.187,18.69-54.967,32.857-96.676,40.196c-12.808,2.236-25.005-6.334-27.24-19.143
	c-2.236-12.808,6.334-25.004,19.143-27.24c33.467-5.89,58.136-16.586,75.323-30.442c18.773-15.132,28.71-34.421,31.539-55.326
	c3.005-22.206-1.721-46.677-12.289-70.563C1048.774,577.548,1024.693,547.487,994.624,525.068z"/>
<path fill-rule="evenodd" clip-rule="evenodd" fill="none" stroke="#000000" stroke-width="49.9997" stroke-linecap="round" stroke-linejoin="round" stroke-miterlimit="2.6131" d="
	M2055.732,852.103c71.556,183.334,27.33,253.14-166.309,222.03"/>
<path fill-rule="evenodd" clip-rule="evenodd" fill="#FFFFFF" d="M835.099,1470.623h473.189c13.91,0,25.292,11.381,25.292,25.292
	l0,0c0,13.91-11.383,25.292-25.292,25.292H835.099c-13.91,0-25.292-11.382-25.292-25.292l0,0
	C809.807,1482.004,821.188,1470.623,835.099,1470.623z"/>
<path fill-rule="evenodd" clip-rule="evenodd" fill="#FFFFFF" d="M1432.45,1470.623h109.722c13.91,0,25.291,11.381,25.291,25.292
	l0,0c0,13.91-11.382,25.292-25.291,25.292H1432.45c-13.91,0-25.292-11.382-25.292-25.292l0,0
	C1407.158,1482.004,1418.539,1470.623,1432.45,1470.623z"/>
<path fill-rule="evenodd" clip-rule="evenodd" fill="#FFFFFF" d="M2050.093,1470.623h258.966c13.91,0,25.292,11.381,25.292,25.292
	l0,0c0,13.91-11.383,25.292-25.292,25.292h-258.966c-13.909,0-25.292-11.382-25.292-25.292l0,0
	C2024.801,1482.004,2036.182,1470.623,2050.093,1470.623z"/>
<path fill-rule="evenodd" clip-rule="evenodd" fill="none" stroke="#343333" stroke-width="49.9997" stroke-linecap="round" stroke-linejoin="round" stroke-miterlimit="2.6131" d="
	M1921.278,854.133c88.364,105.376,83.571,274.645,24.378,394.05"/>
<path fill-rule="evenodd" clip-rule="evenodd" fill="#FBFDFF" d="M1968.141,877.356L1968.141,877.356
	c48.018,9.712,95.25-21.63,104.962-69.647l35.845-177.237c9.712-48.018-21.63-95.25-69.647-104.962h-0.001
	c-48.018-9.711-95.25,21.631-104.961,69.648l-35.846,177.236C1888.781,820.413,1920.122,867.646,1968.141,877.356z"/>
<path fill-rule="evenodd" clip-rule="evenodd" fill="#E6E7E8" d="M2000.306,526.39c-32.34,8.085-58.95,34.07-65.969,68.769
	l-35.845,177.236c-4.154,20.542-0.791,40.937,8.172,58.314c25.019-2.709,49.789-10.854,72.529-24.77
	C1923.391,754.499,1930.436,661.311,2000.306,526.39z"/>
<path fill-rule="evenodd" clip-rule="evenodd" d="M1508.926,777.606c-4.727-12.097,1.248-25.735,13.345-30.462
	s25.735,1.248,30.462,13.345c21.604,55.353,27.068,97.234,20.323,125.402c-4.905,20.481-15.756,34.76-31.511,42.86
	c-14.704,7.561-32.587,8.947-52.766,4.21c-37.589-8.824-86.974-40.62-139.715-94.702c-9.047-9.301-8.841-24.176,0.461-33.223
	c9.301-9.047,24.176-8.841,33.223,0.461c46.209,47.383,87.264,74.721,116.706,81.633c9.163,2.151,16.138,2.111,20.556-0.16
	c3.366-1.73,5.902-5.689,7.398-11.938C1532.014,855.799,1526.865,823.571,1508.926,777.606z"/>
<path fill-rule="evenodd" clip-rule="evenodd" fill="#414042" d="M1411.938,681.733h105.296c17.287,0,31.432,14.145,31.432,31.432
	v51.862c0,17.287-14.145,31.432-31.432,31.432h-105.296c-17.287,0-31.432-14.145-31.432-31.432v-51.862
	C1380.506,695.878,1394.65,681.733,1411.938,681.733z"/>
<path fill-rule="evenodd" clip-rule="evenodd" d="M1383.185,777.684c-1.72-3.878-2.679-8.16-2.679-12.656v-51.862
	c0-13.12,8.148-24.428,19.633-29.118C1393.722,715.104,1388.068,746.326,1383.185,777.684z"/>
<path fill-rule="evenodd" clip-rule="evenodd" fill="#414042" d="M1385.873,786.058c-8.335-9.962-7.017-24.796,2.945-33.131
	s24.796-7.017,33.131,2.945c43.02,51.301,64.492,116.915,68.678,184.566c4.559,73.682-11.525,150.145-42.629,212.885
	c-5.743,11.639-19.835,16.419-31.474,10.675c-11.64-5.742-16.419-19.835-10.676-31.474c27.623-55.721,41.901-123.718,37.843-189.324
	C1440.097,885.086,1422.009,829.149,1385.873,786.058z"/>
<path fill-rule="evenodd" clip-rule="evenodd" fill="#414042" d="M1447.948,792.887L1447.948,792.887
	c45.327,9.167,89.911-20.418,99.078-65.744l33.836-167.301c9.167-45.326-20.418-89.911-65.744-99.078l0,0
	c-45.326-9.167-89.911,20.417-99.078,65.744l-33.835,167.301C1373.038,739.135,1402.622,783.72,1447.948,792.887z"/>
<path fill-rule="evenodd" clip-rule="evenodd" d="M1457.369,469.931c-20.616,11.593-36.301,31.716-41.329,56.577l-33.835,167.301
	c-3.682,18.201-1.109,36.281,6.218,51.998C1404.592,652.293,1427.635,560.084,1457.369,469.931z"/>
<path fill-rule="evenodd" clip-rule="evenodd" d="M1550.763,517.198c-7.726-10.419-5.542-25.129,4.878-32.854
	s25.129-5.541,32.854,4.878c48.654,65.605,73.439,114.747,63.084,157.586c-10.566,43.714-55.209,74.182-144.999,100.134
	c-12.452,3.608-25.473-3.561-29.081-16.014c-3.608-12.452,3.561-25.473,16.013-29.081c71.691-20.721,106.324-40.864,112.42-66.083
	C1612.239,609.67,1591.075,571.556,1550.763,517.198z"/>
<path fill-rule="evenodd" clip-rule="evenodd" fill="#FAB794" d="M1605.111,638.525c4.116-12.3,17.426-18.934,29.726-14.816
	c12.3,4.116,18.934,17.426,14.817,29.726c-7.171,21.472-23.007,39.646-48.834,55.5c-22.622,13.888-53.646,26.273-94.24,38.007
	c-12.452,3.608-25.473-3.561-29.081-16.014c-3.608-12.452,3.561-25.473,16.013-29.081c36.43-10.529,63.717-21.306,82.828-33.037
	C1592.244,659.047,1601.564,649.145,1605.111,638.525z"/>
<path fill-rule="evenodd" clip-rule="evenodd" fill="#414042" d="M1510.713,646.65c53.14,0,96.481-43.342,96.481-96.481
	c0-53.141-43.342-96.482-96.481-96.482c-53.141,0-96.481,43.342-96.481,96.482C1414.231,603.309,1457.572,646.65,1510.713,646.65z"
	/>
<path fill-rule="evenodd" clip-rule="evenodd" d="M1422.326,588.896c-5.202-11.854-8.095-24.952-8.095-38.727
	c0-33.59,17.169-63.165,43.205-80.443C1444.453,509.078,1432.744,548.822,1422.326,588.896z"/>
<path fill-rule="evenodd" clip-rule="evenodd" fill="#414042" d="M1461.009,459.004c10.368,7.776,12.47,22.486,4.693,32.854
	c-7.776,10.369-22.486,12.47-32.855,4.694c-37.757-28.409-75.48-38.293-111.788-35.074c-43.275,3.837-85.704,26.097-124.568,57.958
	c-10.013,8.233-24.805,6.791-33.038-3.222c-8.234-10.013-6.792-24.805,3.221-33.038c45.662-37.436,96.642-63.688,150.337-68.449
	C1364.447,410.521,1413.13,422.979,1461.009,459.004z"/>
<path fill-rule="evenodd" clip-rule="evenodd" fill="none" stroke="#F79D8B" stroke-width="49.9997" stroke-linecap="round" stroke-linejoin="round" stroke-miterlimit="2.6131" d="
	M1018.013,831.786c19.11,206.319-46.289,301.981-222.835,354.812"/>
<path fill-rule="evenodd" clip-rule="evenodd" fill="#FED8BA" d="M870.093,735.418l124.093-13.481
	c20.373-2.214,38.854,12.644,41.066,33.018l6.641,61.12c2.213,20.374-12.645,38.854-33.019,41.067l-124.093,13.481
	c-20.373,2.213-38.854-12.645-41.066-33.019l-6.64-61.12c-1.159-10.672,6.37-14.699,12.918-22.266
	C855.945,747.34,860.392,736.472,870.093,735.418z"/>
<path fill-rule="evenodd" clip-rule="evenodd" fill="none" stroke="#FAB794" stroke-width="49.9997" stroke-linecap="round" stroke-linejoin="round" stroke-miterlimit="2.6131" d="
	M867.558,834.058c98.879,117.915,93.517,307.325,27.279,440.939"/>
<path fill-rule="evenodd" clip-rule="evenodd" fill="#FFFFFF" d="M926.126,860.998L926.126,860.998
	c54.82,0,127.622-64.039,107.061-114.855c-17.929-44.309-57.878-63.577-14.772-135.813c9.166-15.359,9.19,19.673,26.631-3.562
	c31.994-42.622,5.359-130.846-79.414-140.305c-76.917-8.582-129.797,50.454-94.419,127.356
	c45.051,97.929,4.181,122.486-24.584,154.899c-8.303,9.355-15.597,19.366-19.525,31.984
	C810.809,833.044,871.307,860.998,926.126,860.998z"/>
<path fill-rule="evenodd" clip-rule="evenodd" fill="#E6E7E8" d="M879.523,494.297c-21.063,23.319-26.986,58.929-8.312,99.522
	c17.081,37.129,21.802,63.704,19.523,84.166l0.007,0.013C915.314,616.005,865.745,572.876,879.523,494.297z"/>
<path fill-rule="evenodd" clip-rule="evenodd" fill="#414042" d="M1894.171,1300.281c0.363-25.313,11.907-49.169,31.531-65.163
	c28.377,14.364,42.566,21.546,42.566,21.546c12.28,30.6,34.738,56.027,63.586,71.995c-2.925,5.225-7.862,9.023-13.663,10.51
	c-40.369,0.203-66.211-11.75-85.132-53.077c-4.117,7.61-12.232,20.592-14.715,27.853
	C1899.797,1303.263,1909.891,1309.055,1894.171,1300.281z"/>
<path fill-rule="evenodd" clip-rule="evenodd" fill="#343333" d="M1929.78,759.604h111.549c18.313,0,33.298,14.983,33.298,33.298
	v54.942c0,18.313-14.984,33.298-33.298,33.298H1929.78c-18.313,0-33.298-14.984-33.298-33.298v-54.942
	C1896.482,774.587,1911.467,759.604,1929.78,759.604z"/>
<path fill-rule="evenodd" clip-rule="evenodd" fill="#E6E7E8" d="M2075.145,578.852c-4.625-12.097,1.432-25.652,13.528-30.277
	c12.097-4.626,25.653,1.432,30.278,13.528c20.51,53.377,30.825,97.658,30.944,132.842c0.108,32.033-8.066,57.308-24.524,75.82
	c-16.682,18.764-40.707,29.46-72.078,32.088c-31.806,2.665-72.029-3.186-120.668-17.549c-12.453-3.66-19.581-16.722-15.922-29.174
	c3.66-12.453,16.721-19.581,29.174-15.921c42.881,12.663,77.398,17.899,103.551,15.709c18.85-1.58,32.446-7.061,40.787-16.443
	c8.564-9.634,12.813-24.478,12.745-44.53C2102.86,665.55,2093.588,626.852,2075.145,578.852z"/>
<path fill-rule="evenodd" clip-rule="evenodd" fill="#FAB794" d="M2011.141,754.666c12.859,1.575,22.007,13.277,20.431,26.137
	c-1.575,12.858-13.277,22.006-26.137,20.431c-11.532-1.452-23.085-3.448-34.656-5.994c-11.761-2.586-24.477-5.896-38.153-9.936
	c-12.453-3.66-19.581-16.722-15.922-29.174c3.66-12.453,16.721-19.581,29.174-15.921c11.979,3.537,23.592,6.542,34.84,9.016
	C1992.154,751.74,2002.292,753.552,2011.141,754.666z"/>
<path fill-rule="evenodd" clip-rule="evenodd" fill="#FBFDFF" d="M2034.633,722.437c56.296,0,102.211-45.916,102.211-102.212
	s-45.915-102.212-102.211-102.212c-56.297,0-102.212,45.916-102.212,102.212S1978.336,722.437,2034.633,722.437z"/>
<path fill-rule="evenodd" clip-rule="evenodd" fill="#E6E7E8" d="M1946.06,671.265c-8.674-15.02-13.639-32.449-13.639-51.04
	c0-44.988,29.065-83.188,69.443-96.846C1972.314,579.947,1953.721,629.237,1946.06,671.265z"/>
<path fill-rule="evenodd" clip-rule="evenodd" fill="#FBFDFF" d="M2007.5,520.091c12.961,0.915,22.727,12.164,21.812,25.125
	c-0.915,12.96-12.163,22.726-25.124,21.811c-66.797-4.907-131.005,12.99-183.905,47.935
	c-52.935,34.967-94.596,86.964-116.26,150.229c-4.168,12.3-17.519,18.893-29.818,14.725s-18.893-17.519-14.725-29.818
	c25.155-73.459,73.476-133.8,134.85-174.341C1855.736,535.192,1930.166,514.41,2007.5,520.091z"/>
<path fill-rule="evenodd" clip-rule="evenodd" fill="#FED8BA" d="M1688.309,687.458c6.557-11.182,20.938-14.932,32.119-8.375
	s14.932,20.938,8.375,32.119c-5.003,8.503-9.604,17.297-13.772,26.363c-4.014,8.732-7.692,17.943-11.008,27.625
	c-4.168,12.3-17.519,18.893-29.818,14.725s-18.893-17.519-14.725-29.818c3.688-10.769,7.985-21.46,12.849-32.042
	C1677.172,707.518,1682.512,697.311,1688.309,687.458z"/>
<path fill-rule="evenodd" clip-rule="evenodd" d="M1831.779,1038.051c24.545-6.201,50.576-1.225,71.104,13.591
	c-6.53,31.128-9.795,46.692-9.795,46.692c-26.378,19.782-45.127,48.057-53.084,80.054c-5.805-1.473-10.752-5.259-13.688-10.478
	c-10.645-38.941-5.787-66.996,29.233-95.969c-8.415-2.007-23.055-6.486-30.711-7.004
	C1830.355,1044.256,1827.373,1055.506,1831.779,1038.051z"/>
<path fill-rule="evenodd" clip-rule="evenodd" fill="#414042" d="M1392.659,1195.546c-4.871-23.399,0.859-47.754,15.653-66.526
	c29.101,7.399,43.651,11.1,43.651,11.1c17.608,25.669,43.531,44.48,73.396,53.262c-1.62,5.416-5.389,9.932-10.428,12.493
	c-37.156,8.489-63.425,2.789-89.358-31.399c-2.229,7.859-7.036,21.489-7.831,28.689
	C1398.455,1197.136,1408.947,1200.398,1392.659,1195.546z"/>
<path fill-rule="evenodd" clip-rule="evenodd" d="M1324.823,769.461c25.086,3.408,47.378,17.739,60.894,39.146
	c-17.676,26.441-26.514,39.662-26.514,39.662c-31.855,8.508-59.803,27.741-79.127,54.457c-4.835-3.532-8.012-8.892-8.789-14.829
	c4.659-40.101,19.637-64.314,62.94-78.123c-7.06-5.003-18.969-14.622-25.878-17.961
	C1321.187,774.686,1314.221,784.01,1324.823,769.461z"/>
<path fill-rule="evenodd" clip-rule="evenodd" fill="#FED8BA" d="M1328.605,414.038c12.961-0.355,23.756,9.862,24.112,22.823
	c0.355,12.961-9.862,23.756-22.823,24.112c-21.646,0.646-43.271,6.125-64.482,15.289c-23.938,10.342-47.058,25.249-68.922,43.174
	c-10.013,8.233-24.805,6.791-33.038-3.222c-8.234-10.013-6.792-24.805,3.221-33.038c25.362-20.793,52.243-38.111,80.149-50.168
	C1273.057,421.674,1300.426,414.88,1328.605,414.038z"/>
<path fill-rule="evenodd" clip-rule="evenodd" fill="#FFFFFF" d="M836.154,764.211c68.054,13.91,136.496,24.112,199.56-5.004
	c11.051,112.26,40.931,203.048,98.051,299.863c-92.25,37.557-156.073,35.992-251.649,7.962
	C917.924,951.702,777.087,847.959,836.154,764.211z"/>
<path fill-rule="evenodd" clip-rule="evenodd" fill="#E6E7E8" d="M841.071,755.322c-5.126,38.687,15.319,91.886,25.64,112.742
	c70.808,143.09,135.979,216.257,267.054,191.006c-92.25,37.557-156.073,35.992-251.649,7.962
	c31.939-102.866-77.593-196.774-59.726-275.295C823.636,786.257,832.924,764.933,841.071,755.322z"/>
<path fill-rule="evenodd" clip-rule="evenodd" fill="#FFFFFF" d="M930.941,463.644c12.706,2.592,20.905,14.994,18.313,27.701
	s-14.994,20.906-27.701,18.314c-7.41-1.521,6.362,1.333-2.462-0.425c-0.26-0.052-0.517-0.109-0.772-0.169
	c-63.344-12.474-117.723-8.047-158.984,16.088c-40.978,23.968-70.352,68.339-84.246,136.061c-1.073,5.234,1.023-4.899-0.357,2.039
	c-2.49,12.757-14.852,21.08-27.609,18.59c-12.757-2.491-21.08-14.852-18.59-27.609c0.732-3.68,0.096-0.43,0.027,0.006l0.009,0.001
	c0.041-0.17,0.182-0.838,0.505-2.413c16.79-81.83,53.981-136.438,106.518-167.168c51.865-30.336,117.34-36.46,191.749-21.792
	c0.318,0.05,0.636,0.104,0.954,0.168c4.099,0.816,1.342,0.275-0.005,0.025l-0.006,0.031
	C928.783,463.198,929.624,463.373,930.941,463.644L930.941,463.644z M928.289,463.061l-0.088-0.016l-0.006,0.028l0.088,0.019
	L928.289,463.061L928.289,463.061z M628.56,654.239c-0.009,0.058-0.008,0.066,0.009,0.001L628.56,654.239z"/>
<path fill-rule="evenodd" clip-rule="evenodd" fill="#FED8BA" d="M837.569,455.729c12.96-0.711,24.044,9.219,24.756,22.18
	c0.711,12.96-9.219,24.044-22.18,24.756c-43.337,2.379-80.063,16.271-108.053,43.111c-27.153,26.04-46.862,64.742-57.361,117.478
	c-2.49,12.757-14.852,21.08-27.609,18.59c-12.757-2.491-21.08-14.852-18.59-27.609c12.48-62.685,36.896-109.637,70.981-142.325
	C736.102,476.822,782.985,458.725,837.569,455.729z"/>
<path fill-rule="evenodd" clip-rule="evenodd" fill="#414042" d="M856.632,1324.225c-3.465-25.078,4.342-50.404,21.324-69.179
	c30.222,9.911,45.333,14.867,45.333,14.867c16.763,28.393,42.805,50.136,73.733,61.562c-2.101,5.607-6.408,10.108-11.918,12.454
	c-39.875,6.3-67.226-1.612-92.175-39.605c-2.919,8.145-8.98,22.203-10.337,29.755
	C862.644,1326.321,873.497,1330.523,856.632,1324.225z"/>
<path fill-rule="evenodd" clip-rule="evenodd" fill="#414042" d="M731.217,1177.637c19.729-15.864,45.465-22.188,70.3-17.272
	c7.034,31.018,10.552,46.527,10.552,46.527c-15.736,28.974-20.998,62.489-14.898,94.892c-5.891,1.08-11.966-0.301-16.81-3.82
	c-25.902-30.965-33.177-58.491-13.413-99.423c-8.487,1.683-23.661,3.712-30.838,6.431
	C732.508,1183.871,734.484,1195.34,731.217,1177.637z"/>
<path fill-rule="evenodd" clip-rule="evenodd" fill="#FFFFFF" d="M1009.354,624.521c24.646,0,44.75-20.103,44.75-44.75
	s-20.104-44.75-44.75-44.75c-24.647,0-44.75,20.103-44.75,44.75S984.706,624.521,1009.354,624.521z"/>
<path fill-rule="evenodd" clip-rule="evenodd" fill="#FAB794" d="M1059.759,602.568c-5.692-11.64-0.871-25.69,10.768-31.383
	c11.64-5.692,25.69-0.871,31.382,10.768c8.918,18.182,15.249,36.866,18.494,55.308c5.301,30.119,2.646,60.126-9.965,87.155
	c-12.606,27.018-34.899,50.374-68.803,67.001c-18.435,9.041-40.121,16.047-65.337,20.483c-12.808,2.236-25.005-6.334-27.24-19.143
	c-2.236-12.808,6.334-25.004,19.143-27.24c21.06-3.706,38.552-9.253,52.819-16.25c23.507-11.528,38.664-27.078,46.899-44.73
	c8.231-17.641,9.813-38.073,6.1-59.178C1071.49,630.988,1066.609,616.535,1059.759,602.568z"/>
<path fill-rule="evenodd" clip-rule="evenodd" fill="#FAB794" d="M2113.244,484.834l-52.386-11.415l-13.725,62.988
	c-3.139,14.406,6.079,28.761,20.485,31.9l0,0c14.407,3.139,28.762-6.079,31.9-20.486L2113.244,484.834z"/>
<path fill-rule="evenodd" clip-rule="evenodd" fill="#FED8BA" d="M2153.186,362.591c-42.045-21.541-97.936-7.89-115.133,37.125
	c-17.196,45.016-5.316,81.172,5.895,100.766c15.32,26.772,82.918,85.068,98.571,63.222c13.314-18.583,25.96-28.418,33.345-45.377
	c10.501-24.113,8.098-29.732,12.426-39.248C2207.849,436.078,2195.23,384.132,2153.186,362.591z"/>
<path fill-rule="evenodd" clip-rule="evenodd" fill="#FAA61A" d="M2022.945,440.461c0.803-35.667,24.555-72.382,57.56-85.926
	s70.899-6.255,96.523,18.566c25.626,24.822,34.681,62.763,22.194,96.183c-28.187-8.404-83.152-26.809-106.593-34.204l-28.245,50.503
	c0,0,2.608-12.449,7.537-27.779C2039.271,446.242,2022.945,440.461,2022.945,440.461L2022.945,440.461z M2071.922,457.804
	c0.002,0-34.554-12.348-48.977-17.343c-0.519,26.989,10.133,52.993,29.437,71.862
	C2065.409,475.978,2071.922,457.804,2071.922,457.804z"/>
<path fill-rule="evenodd" clip-rule="evenodd" fill="#FED8BA" d="M2060.664,455.009c-12.519-3.052-25.141,4.622-28.193,17.141
	c-3.052,12.519,4.622,25.141,17.141,28.193l10.813,2.636l11.053-45.333L2060.664,455.009z"/>
<path fill-rule="evenodd" clip-rule="evenodd" fill="#F7C1AC" d="M2058.189,492.96c-26.402-6.241-14.311-34.594,6.646-26.271
	l-3.188,11.806c-1.906,0.296-3.444,1.716-3.893,3.592c-0.449,1.876,0.281,3.837,1.847,4.964L2058.189,492.96z"/>
<path fill-rule="evenodd" clip-rule="evenodd" fill="#414042" d="M919.889,323.388L919.889,323.388
	c17.265-43.564,67.034-65.081,110.598-47.816l67.176,26.623c43.564,17.265,65.081,67.035,47.816,110.599h-0.001
	c-17.265,43.563-67.034,65.081-110.598,47.815l-67.177-26.623C924.14,416.721,902.623,366.952,919.889,323.388z"/>
<path fill-rule="evenodd" clip-rule="evenodd" fill="#FAB794" d="M1000.865,425.183l-50.809-6.875l-8.268,61.092
	c-1.891,13.972,7.994,26.95,21.967,28.842h0.001c13.973,1.891,26.95-7.994,28.842-21.967L1000.865,425.183z"/>
<path fill-rule="evenodd" clip-rule="evenodd" fill="#FED8BA" d="M1033.344,280.673c-41.726-17.319-93.959-0.033-106.909,44.192
	c-12.951,44.225,1.138,77.783,13.322,95.602c16.65,24.35,85.544,74.751,98.795,52.729c11.271-18.732,22.573-29.074,28.316-45.805
	c8.166-23.788,5.445-28.961,8.844-38.363C1091.069,346.544,1075.069,297.991,1033.344,280.673z"/>
<path fill-rule="evenodd" clip-rule="evenodd" fill="#F7C1AC" d="M1077.909,382.158c5.353-17.855,3.245-34.795-2.365-50.603
	c-4.196-7.044-9.853-13.318-16.818-18.334c-22.247-16.019-52.431-15.298-73.889,1.763c-21.457,17.062-28.96,46.307-18.365,71.591
	c12.921,2.189,25.229,3.579,36.928,4.17c27.464,0.939,50.343-9.061,63.752-28.276
	C1068.832,370.74,1073.326,378.406,1077.909,382.158z"/>
<path fill-rule="evenodd" clip-rule="evenodd" fill="#414042" d="M915.148,364.859c-1.962-34.061,17.872-70.875,48.298-86.309
	c30.426-15.434,67.104-11.383,93.429,10.318c26.324,21.702,37.857,57.176,28.51,89.988c-11.375-4.746-16.084-22.307-13.239-34.935
	c-21.578,41.337-60.119,44.041-100.115,34.908l-13.932,25.873c0,0,1.535-12.066,5.063-27.056
	C963.162,377.645,929.278,368.518,915.148,364.859z"/>
<path fill-rule="evenodd" clip-rule="evenodd" fill="#414042" d="M947.255,439.01c-43.771-65.543-36.856-90.956,20.742-76.236
	C954.169,413.598,947.255,439.01,947.255,439.01z"/>
<path fill-rule="evenodd" clip-rule="evenodd" fill="#FED8BA" d="M952.215,375.843c-12.166-1.952-23.611,6.328-25.563,18.494
	c-1.952,12.167,6.328,23.611,18.495,25.563l10.508,1.687l7.07-44.058L952.215,375.843z"/>
<path fill-rule="evenodd" clip-rule="evenodd" fill="#F7C1AC" d="M952.758,412.208c-25.645-3.931-16.286-31.882,4.327-25.55
	l-2.136,11.497c-1.795,0.429-3.152,1.899-3.437,3.723c-0.284,1.822,0.562,3.635,2.141,4.59L952.758,412.208z"/>
<path fill-rule="evenodd" clip-rule="evenodd" fill="#414042" d="M1583.803,451.4c44.958,0,81.625-36.667,81.625-81.625
	s-36.667-81.625-81.625-81.625c-44.957,0-81.624,36.667-81.624,81.625S1538.846,451.4,1583.803,451.4z"/>
<path fill-rule="evenodd" clip-rule="evenodd" fill="#FAB794" d="M1574.344,424.842l-47.658-10.385l-12.485,57.304
	c-2.856,13.105,5.53,26.165,18.637,29.021l0,0c13.106,2.855,26.165-5.53,29.021-18.637L1574.344,424.842z"/>
<path fill-rule="evenodd" clip-rule="evenodd" fill="#FED8BA" d="M1620.338,304.991c-38.25-19.597-89.097-7.178-104.74,33.775
	c-15.645,40.952-4.837,73.846,5.361,91.67c13.938,24.356,75.435,77.391,89.674,57.516c12.113-16.905,23.617-25.854,30.336-41.281
	c9.553-21.937,7.366-27.049,11.304-35.706C1670.067,371.845,1658.588,324.587,1620.338,304.991z"/>
<path fill-rule="evenodd" clip-rule="evenodd" fill="#414042" d="M1538.246,302.037c6.993-31.699,64.049-32.267,84.911-15.074
	c36.836,30.356,41.827,66.055,54.646,76.737c4.933,4.111,11.491,5.709,17.764,4.329c-5.101,10.601-15.825,17.343-27.59,17.343
	C1637.993,385.372,1541.965,356.18,1538.246,302.037z"/>
<path fill-rule="evenodd" clip-rule="evenodd" fill="#414042" d="M1523.871,434.98c27.864-30.642,52.1-49.731,14.375-132.943
	C1477.779,321.628,1472.987,365.942,1523.871,434.98z"/>
<path fill-rule="evenodd" clip-rule="evenodd" fill="#FED8BA" d="M1536.167,389.068c-11.389-2.776-22.871,4.205-25.648,15.593
	c-2.776,11.389,4.205,22.872,15.594,25.648l9.837,2.397l10.056-41.241L1536.167,389.068z"/>
<path fill-rule="evenodd" clip-rule="evenodd" fill="#F7C1AC" d="M1533.916,423.594c-24.02-5.679-13.019-31.472,6.047-23.899
	l-2.9,10.739c-1.734,0.27-3.133,1.561-3.542,3.268c-0.407,1.707,0.256,3.491,1.681,4.517L1533.916,423.594z"/>
<path fill-rule="evenodd" clip-rule="evenodd" fill="#808285" d="M2196.764,1441.411h313.817v-130.937
	c0-8.163-6.678-14.841-14.841-14.841h-284.137c-8.162,0-14.84,6.678-14.84,14.841V1441.411z"/>
<rect x="2196.764" y="1371.968" fill-rule="evenodd" clip-rule="evenodd" fill="#58595B" width="313.817" height="98.655"/>
<path fill-rule="evenodd" clip-rule="evenodd" fill="#808285" d="M429.77,1441.411h313.818v-130.937
	c0-8.163-6.679-14.841-14.842-14.841H444.609c-8.162,0-14.84,6.678-14.84,14.841V1441.411z"/>
<rect x="429.769" y="1371.968" fill-rule="evenodd" clip-rule="evenodd" fill="#58595B" width="313.818" height="98.655"/>
<path fill-rule="evenodd" clip-rule="evenodd" fill="#8298CD" d="M504.117,408.958c11.938,0,21.675-9.736,21.675-21.675
	s-9.737-21.675-21.675-21.675c-11.938,0-21.676,9.737-21.676,21.675S492.179,408.958,504.117,408.958z"/>
<path fill-rule="evenodd" clip-rule="evenodd" fill="#8298CD" d="M2415.299,413.671c11.938,0,21.675-9.737,21.675-21.675
	c0-11.938-9.737-21.675-21.675-21.675c-11.938,0-21.676,9.737-21.676,21.675C2393.623,403.934,2403.36,413.671,2415.299,413.671z"/>
<path fill-rule="evenodd" clip-rule="evenodd" fill="#8298CD" d="M424.955,624.768c11.938,0,21.675-9.737,21.675-21.676
	s-9.736-21.675-21.675-21.675s-21.676,9.736-21.676,21.675S413.017,624.768,424.955,624.768z"/>
<path fill-rule="evenodd" clip-rule="evenodd" fill="#8298CD" d="M2517.077,587.072c11.938,0,21.675-9.737,21.675-21.676
	s-9.736-21.675-21.675-21.675s-21.675,9.736-21.675,21.675S2505.139,587.072,2517.077,587.072z"/>
<path fill-rule="evenodd" clip-rule="evenodd" fill="#7E8EB3" d="M2408.701,745.395c11.938,0,21.676-9.737,21.676-21.676
	s-9.737-21.675-21.676-21.675s-21.675,9.736-21.675,21.675S2396.763,745.395,2408.701,745.395z"/>
<path fill-rule="evenodd" clip-rule="evenodd" fill="#7E8EB3" d="M2502.941,940.47c11.938,0,21.675-9.736,21.675-21.675
	c0-11.938-9.736-21.675-21.675-21.675s-21.676,9.737-21.676,21.675C2481.266,930.733,2491.003,940.47,2502.941,940.47z"/>
<path fill-rule="evenodd" clip-rule="evenodd" fill="#7E8EB3" d="M458.882,786.859c11.938,0,21.675-9.737,21.675-21.675
	c0-11.938-9.737-21.676-21.675-21.676c-11.938,0-21.676,9.737-21.676,21.676C437.206,777.122,446.943,786.859,458.882,786.859z"/>
<path fill-rule="evenodd" clip-rule="evenodd" fill="#7E8EB3" d="M360.032,1012.206c11.938,0,21.676-9.737,21.676-21.676
	c0-11.938-9.737-21.675-21.676-21.675s-21.675,9.737-21.675,21.675C338.357,1002.469,348.094,1012.206,360.032,1012.206z"/>
<path fill-rule="evenodd" clip-rule="evenodd" fill="#E6E7E8" d="M1006.956,632.604c1.426-3.311,2.662-6.012,3.712-8.103
	c-53.655-5.087-80.482-7.631-80.482-7.631C953.865,625.729,986.674,633.57,1006.956,632.604z"/>
<path opacity="0.3" fill-rule="evenodd" clip-rule="evenodd" fill="#FFFFFF" d="M2055.416,941.526h197.862
	c24.812,0,45.111,20.3,45.111,45.111l0,0c0,24.812-20.3,45.111-45.111,45.111h-197.862c-24.812,0-45.111-20.3-45.111-45.111l0,0
	C2010.305,961.826,2030.604,941.526,2055.416,941.526z"/>
<path opacity="0.3" fill-rule="evenodd" clip-rule="evenodd" fill="#FFFFFF" d="M1482.438,1032.933h197.862
	c24.812,0,45.111,20.3,45.111,45.112l0,0c0,24.811-20.3,45.111-45.111,45.111h-197.862c-24.812,0-45.111-20.301-45.111-45.111l0,0
	C1437.327,1053.232,1457.627,1032.933,1482.438,1032.933z"/>
<path opacity="0.3" fill-rule="evenodd" clip-rule="evenodd" fill="#FFFFFF" d="M589.047,805.821h197.861
	c24.813,0,45.112,20.3,45.112,45.111l0,0c0,24.812-20.3,45.111-45.112,45.111H589.047c-24.813,0-45.112-20.3-45.112-45.111l0,0
	C543.935,826.121,564.234,805.821,589.047,805.821z"/>
<path opacity="0.3" fill-rule="evenodd" clip-rule="evenodd" fill="#FFFFFF" d="M906.007,220.632h79.12
	c24.812,0,45.112,20.3,45.112,45.111l0,0c0,24.812-20.301,45.112-45.112,45.112h-79.12c-24.812,0-45.111-20.3-45.111-45.112l0,0
	C860.896,240.932,881.195,220.632,906.007,220.632z"/>
<path opacity="0.3" fill-rule="evenodd" clip-rule="evenodd" fill="#FFFFFF" d="M1647.37,238.498h133.78
	c24.812,0,45.11,20.3,45.11,45.111l0,0c0,24.812-20.3,45.112-45.11,45.112h-133.78c-24.811,0-45.111-20.3-45.111-45.112l0,0
	C1602.259,258.797,1622.559,238.498,1647.37,238.498z"/>
<path opacity="0.3" fill-rule="evenodd" clip-rule="evenodd" fill="#FFFFFF" d="M1969.221,403.793h37.654
	c24.813,0,45.112,20.301,45.112,45.112l0,0c0,24.811-20.301,45.111-45.112,45.111h-37.654c-24.812,0-45.111-20.301-45.111-45.111
	l0,0C1924.109,424.094,1944.409,403.793,1969.221,403.793z"/>
<path opacity="0.3" fill-rule="evenodd" clip-rule="evenodd" fill="#FFFFFF" d="M1234.865,532.488h197.862
	c24.813,0,45.112,20.3,45.112,45.112l0,0c0,24.811-20.3,45.111-45.112,45.111h-197.862c-24.811,0-45.111-20.301-45.111-45.111l0,0
	C1189.754,552.788,1210.055,532.488,1234.865,532.488z"/>
<path opacity="0.3" fill-rule="evenodd" clip-rule="evenodd" fill="#FFFFFF" d="M968.731,1153.102h79.12
	c24.813,0,45.111,20.301,45.111,45.112l0,0c0,24.812-20.3,45.111-45.111,45.111h-79.12c-24.812,0-45.111-20.3-45.111-45.111l0,0
	C923.62,1173.402,943.92,1153.102,968.731,1153.102z"/>
<rect x="1152.479" y="643.142" fill-rule="evenodd" clip-rule="evenodd" fill="#7E8EB3" width="26.388" height="228.061"/>
</svg>
